<svg width="166" height="192" viewBox="0 0 166 192" fill="none" xmlns="http://www.w3.org/2000/svg">
<g id="Best tour plan">
<path d="M37.9688 33.875C37.9688 35.6042 37.6458 37.0938 37 38.3438C36.375 39.5938 35.5312 40.6562 34.4688 41.5312C33.4062 42.4062 32.1771 43.125 30.7812 43.6875C29.4062 44.2292 27.9688 44.6562 26.4688 44.9688C24.9688 45.2812 23.4583 45.4896 21.9375 45.5938C20.4375 45.6979 19.0312 45.75 17.7188 45.75C16.4271 45.75 15.0833 45.6979 13.6875 45.5938C12.3125 45.5104 10.9375 45.3542 9.5625 45.125C8.1875 44.8958 6.83333 44.5938 5.5 44.2188C4.16667 43.8229 2.90625 43.3333 1.71875 42.75L1.65625 2.5C2.82292 2.02083 4.0625 1.59375 5.375 1.21875C6.6875 0.822917 8.02083 0.5 9.375 0.25C10.75 -0.0208333 12.1146 -0.21875 13.4688 -0.34375C14.8229 -0.489583 16.1354 -0.5625 17.4062 -0.5625C18.8854 -0.5625 20.375 -0.46875 21.875 -0.28125C23.3958 -0.09375 24.8542 0.21875 26.25 0.65625C27.6458 1.09375 28.9479 1.66667 30.1562 2.375C31.3646 3.0625 32.4167 3.91667 33.3125 4.9375C34.2292 5.95833 34.9375 7.14583 35.4375 8.5C35.9583 9.85417 36.2188 11.4167 36.2188 13.1875C36.2188 14.3542 36.0521 15.4479 35.7188 16.4688C35.3854 17.4896 34.9062 18.4062 34.2812 19.2188C33.6562 20.0312 32.8958 20.7292 32 21.3125C31.1042 21.875 30.0938 22.2917 28.9688 22.5625C30.3229 22.9167 31.5521 23.4375 32.6562 24.125C33.7812 24.8125 34.7292 25.6458 35.5 26.625C36.2917 27.6042 36.8958 28.7083 37.3125 29.9375C37.75 31.1667 37.9688 32.4792 37.9688 33.875ZM22.0938 16.0625C22.0938 15.4583 21.9688 14.9479 21.7188 14.5312C21.4688 14.0938 21.1562 13.7396 20.7812 13.4688C20.4271 13.1979 20.0312 13 19.5938 12.875C19.1771 12.75 18.8021 12.6875 18.4688 12.6875C18.0521 12.6875 17.6458 12.75 17.25 12.875C16.8542 13 16.4688 13.1458 16.0938 13.3125L15.9062 20.25C16.3854 20.25 16.9792 20.2083 17.6875 20.125C18.3958 20.0417 19.0729 19.8646 19.7188 19.5938C20.3854 19.3021 20.9479 18.8854 21.4062 18.3438C21.8646 17.7812 22.0938 17.0208 22.0938 16.0625ZM17.6562 26.25C17.0521 26.25 16.4688 26.3125 15.9062 26.4375L15.7812 33.5625C16.0938 33.625 16.3958 33.6875 16.6875 33.75C17 33.7917 17.3021 33.8125 17.5938 33.8125C18.0312 33.8125 18.5104 33.7708 19.0312 33.6875C19.5521 33.5833 20.0417 33.3958 20.5 33.125C20.9583 32.8333 21.3333 32.4479 21.625 31.9688C21.9375 31.4896 22.0938 30.8542 22.0938 30.0625C22.0938 29.2708 21.9375 28.625 21.625 28.125C21.3333 27.625 20.9688 27.2396 20.5312 26.9688C20.0938 26.6771 19.6146 26.4896 19.0938 26.4062C18.5729 26.3021 18.0938 26.25 17.6562 26.25ZM73.9062 19.75C73.9062 21.5625 73.7812 23.375 73.5312 25.1875C69.9688 25.4167 66.4271 25.7917 62.9062 26.3125C59.3854 26.8125 55.8646 27.3125 52.3438 27.8125C52.8854 29.3125 53.7292 30.5104 54.875 31.4062C56.0417 32.3021 57.4271 32.75 59.0312 32.75C59.8646 32.75 60.7708 32.5938 61.75 32.2812C62.75 31.9688 63.7396 31.5833 64.7188 31.125C65.6979 30.6458 66.6354 30.1354 67.5312 29.5938C68.4271 29.0521 69.1979 28.5625 69.8438 28.125L68.3438 42.3125C67.5312 42.9375 66.6458 43.4688 65.6875 43.9062C64.75 44.3438 63.7708 44.6979 62.75 44.9688C61.7292 45.2396 60.6979 45.4375 59.6562 45.5625C58.6146 45.6875 57.5938 45.75 56.5938 45.75C54.5312 45.75 52.6458 45.4688 50.9375 44.9062C49.2292 44.3438 47.6771 43.5625 46.2812 42.5625C44.9062 41.5417 43.6979 40.3438 42.6562 38.9688C41.6146 37.5938 40.75 36.0938 40.0625 34.4688C39.375 32.8438 38.8542 31.125 38.5 29.3125C38.1458 27.5 37.9688 25.6667 37.9688 23.8125C37.9688 21.875 38.1458 19.9375 38.5 18C38.8542 16.0625 39.3854 14.1979 40.0938 12.4062C40.8229 10.6146 41.7292 8.95833 42.8125 7.4375C43.9167 5.89583 45.1979 4.55208 46.6562 3.40625C48.1146 2.26042 49.7604 1.36458 51.5938 0.71875C53.4479 0.0729167 55.4896 -0.25 57.7188 -0.25C59.5729 -0.25 61.2604 0.0104167 62.7812 0.53125C64.3229 1.03125 65.6875 1.73958 66.875 2.65625C68.0833 3.55208 69.125 4.625 70 5.875C70.8958 7.125 71.625 8.5 72.1875 10C72.7708 11.4792 73.1979 13.0521 73.4688 14.7188C73.7604 16.3646 73.9062 18.0417 73.9062 19.75ZM61.4062 18.125C61.4062 17.5417 61.3438 16.9479 61.2188 16.3438C61.0938 15.7188 60.8854 15.1562 60.5938 14.6562C60.3229 14.1562 59.9583 13.75 59.5 13.4375C59.0417 13.1042 58.4688 12.9375 57.7812 12.9375C56.9479 12.9375 56.2083 13.1667 55.5625 13.625C54.9375 14.0625 54.3958 14.625 53.9375 15.3125C53.4792 15.9792 53.1042 16.7083 52.8125 17.5C52.5208 18.2917 52.3021 19.0208 52.1562 19.6875L61.4062 18.8125V18.125ZM108 29C108 31.8542 107.5 34.3229 106.5 36.4062C105.521 38.4688 104.167 40.1771 102.438 41.5312C100.729 42.8646 98.7188 43.8542 96.4062 44.5C94.1146 45.125 91.6458 45.4375 89 45.4375C87.9792 45.4375 86.8542 45.3021 85.625 45.0312C84.4167 44.7604 83.1875 44.4271 81.9375 44.0312C80.6875 43.6146 79.4792 43.1771 78.3125 42.7188C77.1667 42.2396 76.1458 41.7917 75.25 41.375L76.625 29.125C78.3958 30.1875 80.3542 31 82.5 31.5625C84.6667 32.1042 86.7917 32.375 88.875 32.375C89.2708 32.375 89.75 32.3646 90.3125 32.3438C90.875 32.3021 91.4062 32.2083 91.9062 32.0625C92.4271 31.8958 92.8646 31.6562 93.2188 31.3438C93.5729 31.0312 93.75 30.5833 93.75 30C93.75 29.6042 93.625 29.2708 93.375 29C93.125 28.7083 92.8021 28.4792 92.4062 28.3125C92.0104 28.125 91.5625 27.9896 91.0625 27.9062C90.5625 27.8021 90.0729 27.7292 89.5938 27.6875C89.1146 27.6458 88.6667 27.625 88.25 27.625C87.8333 27.625 87.5 27.625 87.25 27.625C85.4583 27.625 83.8229 27.3438 82.3438 26.7812C80.8854 26.2188 79.625 25.4271 78.5625 24.4062C77.5208 23.3646 76.7083 22.1146 76.125 20.6562C75.5417 19.1771 75.25 17.5417 75.25 15.75C75.25 13.2917 75.7396 11.0938 76.7188 9.15625C77.7188 7.19792 79.0417 5.54167 80.6875 4.1875C82.3542 2.8125 84.2604 1.76042 86.4062 1.03125C88.5521 0.302083 90.7708 -0.0625 93.0625 -0.0625C94.0833 -0.0625 95.1354 -0.0208333 96.2188 0.0625C97.3021 0.125 98.375 0.25 99.4375 0.4375C100.521 0.625 101.573 0.864583 102.594 1.15625C103.615 1.44792 104.583 1.8125 105.5 2.25L104.312 14.9375C102.896 14.4583 101.406 14.0625 99.8438 13.75C98.3021 13.4167 96.7917 13.25 95.3125 13.25C95.0417 13.25 94.6875 13.2604 94.25 13.2812C93.8333 13.2812 93.3854 13.3125 92.9062 13.375C92.4479 13.4167 91.9792 13.4896 91.5 13.5938C91.0208 13.6979 90.5938 13.8438 90.2188 14.0312C89.8438 14.1979 89.5417 14.4271 89.3125 14.7188C89.0833 15.0104 88.9792 15.3542 89 15.75C89.0208 16.2083 89.1875 16.5625 89.5 16.8125C89.8333 17.0625 90.25 17.25 90.75 17.375C91.2708 17.4792 91.8333 17.5312 92.4375 17.5312C93.0625 17.5312 93.6771 17.5208 94.2812 17.5C94.8854 17.4583 95.4479 17.4271 95.9688 17.4062C96.4896 17.3646 96.9167 17.3542 97.25 17.375C98.9167 17.4792 100.417 17.8333 101.75 18.4375C103.083 19.0417 104.208 19.8438 105.125 20.8438C106.062 21.8438 106.771 23.0417 107.25 24.4375C107.75 25.8125 108 27.3333 108 29ZM142.375 0.9375L142.062 14.1875L132.75 14.5625L131.625 43.5625L118.438 44.25L117.25 15.25L107.938 15.75L108.312 1L142.375 0.9375ZM38 144.188C38 146.208 37.6979 148 37.0938 149.562C36.4896 151.125 35.6562 152.5 34.5938 153.688C33.5521 154.854 32.3229 155.844 30.9062 156.656C29.4896 157.448 27.9688 158.104 26.3438 158.625C24.7396 159.125 23.0729 159.5 21.3438 159.75C19.6146 159.979 17.9167 160.104 16.25 160.125V173.438H1.6875C1.6875 171.062 1.6875 168.75 1.6875 166.5C1.70833 164.25 1.71875 162.021 1.71875 159.812C1.73958 157.583 1.75 155.344 1.75 153.094C1.77083 150.844 1.79167 148.521 1.8125 146.125C1.85417 143.583 1.86458 141.042 1.84375 138.5C1.82292 135.958 1.875 133.396 2 130.812C4.66667 130.021 7.33333 129.427 10 129.031C12.6667 128.635 15.4167 128.438 18.25 128.438C19.8542 128.438 21.4583 128.573 23.0625 128.844C24.6667 129.094 26.1979 129.5 27.6562 130.062C29.1354 130.625 30.5 131.333 31.75 132.188C33.0208 133.021 34.1146 134.021 35.0312 135.188C35.9479 136.354 36.6667 137.688 37.1875 139.188C37.7292 140.688 38 142.354 38 144.188ZM24.125 145.25C24.125 143.896 23.7083 142.844 22.875 142.094C22.0625 141.323 21 140.938 19.6875 140.938C19.25 140.938 18.7917 140.979 18.3125 141.062C17.8542 141.125 17.4167 141.208 17 141.312L16.625 150.438C16.9167 150.479 17.1979 150.5 17.4688 150.5C17.7396 150.5 18.0208 150.5 18.3125 150.5C19.0625 150.5 19.7812 150.375 20.4688 150.125C21.1771 149.875 21.8021 149.521 22.3438 149.062C22.8854 148.583 23.3125 148.031 23.625 147.406C23.9583 146.76 24.125 146.042 24.125 145.25ZM67.1875 156.438L65.875 170.312L39.5625 172.375L40.5625 127.75H56.8125L54.5 156.438H67.1875ZM108.062 170.312L92.5625 172.312L90.6875 165.25H83.5625L82 172.312L66.0625 170.75L78.5 129.125L95.875 128.25L108.062 170.312ZM89.5625 155.688L87.1875 144.812L84.875 155.688H89.5625ZM147.5 157.188C147.5 159.542 147.469 161.875 147.406 164.188C147.365 166.479 147.292 168.792 147.188 171.125L129.188 170.812C129.812 167.125 130.354 163.448 130.812 159.781C131.271 156.094 131.5 152.375 131.5 148.625C131.5 148.354 131.49 147.917 131.469 147.312C131.448 146.708 131.406 146.031 131.344 145.281C131.281 144.51 131.188 143.729 131.062 142.938C130.958 142.125 130.802 141.385 130.594 140.719C130.406 140.052 130.167 139.51 129.875 139.094C129.604 138.656 129.271 138.438 128.875 138.438C128.167 138.438 127.562 138.646 127.062 139.062C126.583 139.479 126.177 140.021 125.844 140.688C125.531 141.333 125.281 142.062 125.094 142.875C124.906 143.688 124.76 144.5 124.656 145.312C124.573 146.125 124.51 146.896 124.469 147.625C124.448 148.333 124.438 148.917 124.438 149.375C124.333 153.062 124.25 156.729 124.188 160.375C124.125 164 124.042 167.667 123.938 171.375L108 172.062C108.417 164.708 108.812 157.396 109.188 150.125C109.583 142.854 109.896 135.542 110.125 128.188L124.875 127.438L124.75 132.438C125.333 131.729 125.958 131.062 126.625 130.438C127.312 129.812 128.042 129.281 128.812 128.844C129.583 128.385 130.396 128.031 131.25 127.781C132.125 127.51 133.042 127.375 134 127.375C135.771 127.375 137.323 127.667 138.656 128.25C139.99 128.833 141.135 129.625 142.094 130.625C143.052 131.625 143.854 132.812 144.5 134.188C145.146 135.542 145.667 136.99 146.062 138.531C146.458 140.073 146.76 141.688 146.969 143.375C147.177 145.042 147.312 146.688 147.375 148.312C147.458 149.938 147.5 151.51 147.5 153.031C147.5 154.552 147.5 155.938 147.5 157.188Z" fill="white"/>
<path d="M34.6875 64.9375L34.375 78.1875L25.0625 78.5625L23.9375 107.562L10.75 108.25L9.5625 79.25L0.25 79.75L0.625 65L34.6875 64.9375ZM74.4688 85.0625C74.4688 86.9583 74.25 88.7917 73.8125 90.5625C73.375 92.3125 72.7396 93.9583 71.9062 95.5C71.0938 97.0417 70.0938 98.4583 68.9062 99.75C67.7396 101.021 66.4167 102.115 64.9375 103.031C63.4792 103.948 61.8854 104.667 60.1562 105.188C58.4271 105.688 56.5938 105.938 54.6562 105.938C52.7812 105.938 50.9896 105.698 49.2812 105.219C47.5938 104.74 46.0104 104.073 44.5312 103.219C43.0521 102.344 41.7083 101.302 40.5 100.094C39.3125 98.8646 38.2917 97.5104 37.4375 96.0312C36.6042 94.5312 35.9479 92.9271 35.4688 91.2188C35.0104 89.5104 34.7812 87.7292 34.7812 85.875C34.7812 84.0625 35 82.2917 35.4375 80.5625C35.875 78.8125 36.5 77.1667 37.3125 75.625C38.1458 74.0833 39.1458 72.6667 40.3125 71.375C41.4792 70.0833 42.7812 68.9688 44.2188 68.0312C45.6771 67.0938 47.25 66.3646 48.9375 65.8438C50.625 65.3229 52.4062 65.0625 54.2812 65.0625C57.3021 65.0625 60.0521 65.5312 62.5312 66.4688C65.0312 67.4062 67.1562 68.75 68.9062 70.5C70.6771 72.2292 72.0417 74.3333 73 76.8125C73.9792 79.2708 74.4688 82.0208 74.4688 85.0625ZM60.5938 85.875C60.5938 84.9792 60.4583 84.1146 60.1875 83.2812C59.9375 82.4271 59.5625 81.6771 59.0625 81.0312C58.5625 80.3646 57.9375 79.8333 57.1875 79.4375C56.4583 79.0208 55.6146 78.8125 54.6562 78.8125C53.6771 78.8125 52.8021 78.9896 52.0312 79.3438C51.2604 79.6979 50.5938 80.1875 50.0312 80.8125C49.4896 81.4167 49.0729 82.1354 48.7812 82.9688C48.4896 83.7812 48.3438 84.6458 48.3438 85.5625C48.3438 86.4375 48.4688 87.3125 48.7188 88.1875C48.9688 89.0625 49.3438 89.8542 49.8438 90.5625C50.3438 91.2708 50.9583 91.8438 51.6875 92.2812C52.4375 92.7188 53.3021 92.9375 54.2812 92.9375C55.2604 92.9375 56.1354 92.75 56.9062 92.375C57.6979 91.9792 58.3646 91.4583 58.9062 90.8125C59.4479 90.1458 59.8646 89.3854 60.1562 88.5312C60.4479 87.6771 60.5938 86.7917 60.5938 85.875ZM113.906 65C112.969 72.3333 112.167 79.6354 111.5 86.9062C110.833 94.1562 110.198 101.458 109.594 108.812L96.7812 109.75L97.3438 104.938C96.9271 105.417 96.4375 105.833 95.875 106.188C95.3333 106.542 94.75 106.833 94.125 107.062C93.5 107.271 92.8542 107.427 92.1875 107.531C91.5208 107.615 90.8854 107.646 90.2812 107.625C88.8646 107.604 87.5312 107.333 86.2812 106.812C85.0312 106.271 83.8854 105.562 82.8438 104.688C81.8021 103.792 80.8646 102.76 80.0312 101.594C79.1979 100.406 78.4896 99.1667 77.9062 97.875C77.3438 96.5625 76.9062 95.2292 76.5938 93.875C76.3021 92.5208 76.1562 91.2083 76.1562 89.9375C76.1562 88.0625 76.1875 86.125 76.25 84.125C76.3333 82.1042 76.4688 80.0833 76.6562 78.0625C76.8438 76.0417 77.0833 74.0417 77.375 72.0625C77.6875 70.0833 78.0729 68.1875 78.5312 66.375C81.0729 66.5 83.625 66.6146 86.1875 66.7188C88.75 66.8229 91.3021 66.8542 93.8438 66.8125C93.3646 68.625 92.8854 70.4479 92.4062 72.2812C91.9479 74.0938 91.5312 75.9271 91.1562 77.7812C90.7812 79.6146 90.4792 81.4583 90.25 83.3125C90.0208 85.1667 89.9062 87.0417 89.9062 88.9375C89.9062 89.375 89.9271 90 89.9688 90.8125C90.0104 91.625 90.1146 92.4271 90.2812 93.2188C90.4688 94.0104 90.7396 94.7083 91.0938 95.3125C91.4688 95.8958 91.9896 96.1875 92.6562 96.1875C93.4479 96.1875 94.1562 95.8542 94.7812 95.1875C95.4062 94.5 95.9583 93.5833 96.4375 92.4375C96.9167 91.2917 97.3229 89.9688 97.6562 88.4688C98.0104 86.9688 98.3021 85.4062 98.5312 83.7812C98.7812 82.1354 98.9792 80.4792 99.125 78.8125C99.2708 77.1458 99.375 75.5833 99.4375 74.125C99.5208 72.6458 99.5729 71.3229 99.5938 70.1562C99.6354 68.9896 99.6562 68.0833 99.6562 67.4375C99.6562 67.0208 99.6458 66.6146 99.625 66.2188C99.6042 65.8229 99.5729 65.4167 99.5312 65C100.885 65.0417 102.229 65.0729 103.562 65.0938C104.896 65.1146 106.24 65.125 107.594 65.125C108.635 65.125 109.677 65.125 110.719 65.125C111.781 65.1042 112.844 65.0625 113.906 65ZM152.406 78.875C152.406 80.5 152.26 81.9792 151.969 83.3125C151.698 84.625 151.26 85.8333 150.656 86.9375C150.052 88.0417 149.271 89.0625 148.312 90C147.354 90.9375 146.198 91.8333 144.844 92.6875L152.281 105.938L138.219 108.688L133.406 95.375L129.531 95.5L128.969 108.5H115.531C115.635 103.75 115.729 99.0208 115.812 94.3125C115.917 89.6042 116.031 84.875 116.156 80.125C116.198 77.7292 116.24 75.3542 116.281 73C116.323 70.6458 116.406 68.2708 116.531 65.875C117.99 65.3333 119.427 64.8854 120.844 64.5312C122.26 64.1771 123.677 63.9062 125.094 63.7188C126.531 63.5104 127.979 63.375 129.438 63.3125C130.917 63.2292 132.427 63.1875 133.969 63.1875C136.344 63.1875 138.635 63.5208 140.844 64.1875C143.073 64.8333 145.042 65.8125 146.75 67.125C148.458 68.4375 149.823 70.0729 150.844 72.0312C151.885 73.9896 152.406 76.2708 152.406 78.875ZM138.406 79.875C138.406 79 138.281 78.1979 138.031 77.4688C137.802 76.7396 137.448 76.1146 136.969 75.5938C136.51 75.0521 135.927 74.6354 135.219 74.3438C134.531 74.0312 133.719 73.875 132.781 73.875C132.365 73.875 131.958 73.9062 131.562 73.9688C131.167 74.0104 130.781 74.0833 130.406 74.1875L129.906 85.8125H130.656C131.552 85.8125 132.458 85.6979 133.375 85.4688C134.312 85.2396 135.146 84.8854 135.875 84.4062C136.625 83.9271 137.229 83.3125 137.688 82.5625C138.167 81.8125 138.406 80.9167 138.406 79.875Z" fill="#EC1F46"/>
</g>
</svg>
